<mxfile host="Electron" modified="2024-10-01T17:33:18.320Z" agent="Mozilla/5.0 (Windows NT 10.0; Win64; x64) AppleWebKit/537.36 (KHTML, like Gecko) draw.io/24.5.1 Chrome/124.0.6367.207 Electron/30.0.6 Safari/537.36" etag="3tWppwVGgowSV8STupcc" version="24.5.1" type="device">
  <diagram name="Page-1" id="1w-XncVsXPlSdqsD_ZSO">
    <mxGraphModel dx="2653" dy="1898" grid="1" gridSize="10" guides="1" tooltips="1" connect="1" arrows="1" fold="1" page="1" pageScale="1" pageWidth="850" pageHeight="1100" math="0" shadow="0">
      <root>
        <mxCell id="0" />
        <mxCell id="1" parent="0" />
        <mxCell id="pwaC9jHHKqCilpoOdg_W-1" value="Colonist" style="shape=umlActor;verticalLabelPosition=bottom;verticalAlign=top;html=1;outlineConnect=0;" vertex="1" parent="1">
          <mxGeometry x="21" y="10" width="30" height="60" as="geometry" />
        </mxCell>
        <mxCell id="pwaC9jHHKqCilpoOdg_W-2" value="Admin" style="shape=umlActor;verticalLabelPosition=bottom;verticalAlign=top;html=1;outlineConnect=0;" vertex="1" parent="1">
          <mxGeometry x="91" y="10" width="30" height="60" as="geometry" />
        </mxCell>
        <mxCell id="pwaC9jHHKqCilpoOdg_W-5" value="DATABASE" style="rounded=1;whiteSpace=wrap;html=1;fillColor=none;" vertex="1" parent="1">
          <mxGeometry x="161" y="50" width="90" height="30" as="geometry" />
        </mxCell>
        <mxCell id="pwaC9jHHKqCilpoOdg_W-6" value="USER INTERFACE" style="rounded=1;whiteSpace=wrap;html=1;fillColor=none;" vertex="1" parent="1">
          <mxGeometry x="351" y="50" width="120" height="30" as="geometry" />
        </mxCell>
        <mxCell id="pwaC9jHHKqCilpoOdg_W-7" value="Ejets Managemets" style="rounded=1;whiteSpace=wrap;html=1;fillColor=none;" vertex="1" parent="1">
          <mxGeometry x="571" y="50" width="120" height="30" as="geometry" />
        </mxCell>
        <mxCell id="pwaC9jHHKqCilpoOdg_W-8" value="Trip Managemets" style="rounded=1;whiteSpace=wrap;html=1;fillColor=none;" vertex="1" parent="1">
          <mxGeometry x="711" y="50" width="120" height="30" as="geometry" />
        </mxCell>
        <mxCell id="pwaC9jHHKqCilpoOdg_W-9" value="Job Assignment" style="rounded=1;whiteSpace=wrap;html=1;fillColor=none;" vertex="1" parent="1">
          <mxGeometry x="851" y="50" width="120" height="30" as="geometry" />
        </mxCell>
        <mxCell id="pwaC9jHHKqCilpoOdg_W-10" value="Astronomer Managemets" style="rounded=1;whiteSpace=wrap;html=1;fillColor=none;" vertex="1" parent="1">
          <mxGeometry x="991" y="50" width="150" height="30" as="geometry" />
        </mxCell>
        <mxCell id="pwaC9jHHKqCilpoOdg_W-11" value="" style="html=1;points=[];perimeter=orthogonalPerimeter;fillColor=strokeColor;" vertex="1" parent="1">
          <mxGeometry x="32" y="173" width="5" height="120" as="geometry" />
        </mxCell>
        <mxCell id="pwaC9jHHKqCilpoOdg_W-12" value="" style="html=1;points=[];perimeter=orthogonalPerimeter;fillColor=strokeColor;" vertex="1" parent="1">
          <mxGeometry x="421" y="173" width="5" height="120" as="geometry" />
        </mxCell>
        <mxCell id="pwaC9jHHKqCilpoOdg_W-13" value="" style="html=1;points=[];perimeter=orthogonalPerimeter;fillColor=strokeColor;" vertex="1" parent="1">
          <mxGeometry x="201" y="193" width="5" height="80" as="geometry" />
        </mxCell>
        <mxCell id="pwaC9jHHKqCilpoOdg_W-14" value="" style="endArrow=open;startArrow=none;endFill=0;startFill=0;endSize=8;html=1;verticalAlign=bottom;labelBackgroundColor=none;strokeWidth=1;rounded=0;entryX=0.4;entryY=0.076;entryDx=0;entryDy=0;entryPerimeter=0;" edge="1" parent="1" target="pwaC9jHHKqCilpoOdg_W-12">
          <mxGeometry width="160" relative="1" as="geometry">
            <mxPoint x="41" y="182" as="sourcePoint" />
            <mxPoint x="211" y="183" as="targetPoint" />
          </mxGeometry>
        </mxCell>
        <mxCell id="pwaC9jHHKqCilpoOdg_W-15" value="" style="endArrow=block;startArrow=none;endFill=0;startFill=0;endSize=8;html=1;verticalAlign=bottom;dashed=1;labelBackgroundColor=none;rounded=0;exitX=-0.743;exitY=0.924;exitDx=0;exitDy=0;exitPerimeter=0;entryX=1.451;entryY=0.913;entryDx=0;entryDy=0;entryPerimeter=0;" edge="1" parent="1" source="pwaC9jHHKqCilpoOdg_W-12" target="pwaC9jHHKqCilpoOdg_W-11">
          <mxGeometry width="160" relative="1" as="geometry">
            <mxPoint x="366" y="303" as="sourcePoint" />
            <mxPoint x="41" y="283" as="targetPoint" />
          </mxGeometry>
        </mxCell>
        <mxCell id="pwaC9jHHKqCilpoOdg_W-16" value="Enter User Name And Password" style="text;html=1;align=center;verticalAlign=middle;resizable=0;points=[];autosize=1;strokeColor=none;fillColor=none;" vertex="1" parent="1">
          <mxGeometry x="41" y="154" width="200" height="30" as="geometry" />
        </mxCell>
        <mxCell id="pwaC9jHHKqCilpoOdg_W-17" value="Login Successfull or fail" style="text;html=1;align=center;verticalAlign=middle;resizable=0;points=[];autosize=1;strokeColor=none;fillColor=none;" vertex="1" parent="1">
          <mxGeometry x="51" y="283" width="150" height="30" as="geometry" />
        </mxCell>
        <mxCell id="pwaC9jHHKqCilpoOdg_W-18" value="" style="endArrow=open;startArrow=none;endFill=0;startFill=0;endSize=8;html=1;verticalAlign=bottom;labelBackgroundColor=none;strokeWidth=1;rounded=0;entryX=-0.657;entryY=0.331;entryDx=0;entryDy=0;entryPerimeter=0;" edge="1" parent="1">
          <mxGeometry width="160" relative="1" as="geometry">
            <mxPoint x="206" y="253.27999999999997" as="sourcePoint" />
            <mxPoint x="417.71500000000015" y="253" as="targetPoint" />
          </mxGeometry>
        </mxCell>
        <mxCell id="pwaC9jHHKqCilpoOdg_W-20" value="" style="endArrow=block;startArrow=none;endFill=0;startFill=0;endSize=8;html=1;verticalAlign=bottom;dashed=1;labelBackgroundColor=none;rounded=0;entryX=1.343;entryY=0.246;entryDx=0;entryDy=0;entryPerimeter=0;" edge="1" parent="1" target="pwaC9jHHKqCilpoOdg_W-13">
          <mxGeometry width="160" relative="1" as="geometry">
            <mxPoint x="421" y="213" as="sourcePoint" />
            <mxPoint x="261" y="213" as="targetPoint" />
          </mxGeometry>
        </mxCell>
        <mxCell id="pwaC9jHHKqCilpoOdg_W-21" value="Verify User" style="text;html=1;align=center;verticalAlign=middle;resizable=0;points=[];autosize=1;strokeColor=none;fillColor=none;" vertex="1" parent="1">
          <mxGeometry x="251" y="191" width="80" height="30" as="geometry" />
        </mxCell>
        <mxCell id="pwaC9jHHKqCilpoOdg_W-22" value="Authenitcation Status" style="text;html=1;align=center;verticalAlign=middle;resizable=0;points=[];autosize=1;strokeColor=none;fillColor=none;" vertex="1" parent="1">
          <mxGeometry x="221" y="233" width="140" height="30" as="geometry" />
        </mxCell>
        <mxCell id="pwaC9jHHKqCilpoOdg_W-23" value="Colonist" style="shape=umlActor;verticalLabelPosition=bottom;verticalAlign=top;html=1;outlineConnect=0;" vertex="1" parent="1">
          <mxGeometry x="21" y="1440" width="30" height="60" as="geometry" />
        </mxCell>
        <mxCell id="pwaC9jHHKqCilpoOdg_W-24" value="Admin" style="shape=umlActor;verticalLabelPosition=bottom;verticalAlign=top;html=1;outlineConnect=0;" vertex="1" parent="1">
          <mxGeometry x="91" y="1440" width="30" height="60" as="geometry" />
        </mxCell>
        <mxCell id="pwaC9jHHKqCilpoOdg_W-25" value="DATABASE" style="rounded=1;whiteSpace=wrap;html=1;fillColor=none;" vertex="1" parent="1">
          <mxGeometry x="161" y="1442" width="90" height="30" as="geometry" />
        </mxCell>
        <mxCell id="pwaC9jHHKqCilpoOdg_W-26" value="USER INTERFACE" style="rounded=1;whiteSpace=wrap;html=1;fillColor=none;" vertex="1" parent="1">
          <mxGeometry x="351" y="1442" width="120" height="30" as="geometry" />
        </mxCell>
        <mxCell id="pwaC9jHHKqCilpoOdg_W-27" value="Ejets Managemets" style="rounded=1;whiteSpace=wrap;html=1;fillColor=none;" vertex="1" parent="1">
          <mxGeometry x="571" y="1442" width="120" height="30" as="geometry" />
        </mxCell>
        <mxCell id="pwaC9jHHKqCilpoOdg_W-28" value="Trip Managemets" style="rounded=1;whiteSpace=wrap;html=1;fillColor=none;" vertex="1" parent="1">
          <mxGeometry x="711" y="1442" width="120" height="30" as="geometry" />
        </mxCell>
        <mxCell id="pwaC9jHHKqCilpoOdg_W-29" value="Job Assignment" style="rounded=1;whiteSpace=wrap;html=1;fillColor=none;" vertex="1" parent="1">
          <mxGeometry x="851" y="1442" width="120" height="30" as="geometry" />
        </mxCell>
        <mxCell id="pwaC9jHHKqCilpoOdg_W-30" value="Astronomer Managemets" style="rounded=1;whiteSpace=wrap;html=1;fillColor=none;" vertex="1" parent="1">
          <mxGeometry x="991" y="1442" width="150" height="30" as="geometry" />
        </mxCell>
        <mxCell id="pwaC9jHHKqCilpoOdg_W-33" value="" style="endArrow=none;dashed=1;html=1;rounded=0;exitX=0.5;exitY=0;exitDx=0;exitDy=0;exitPerimeter=0;" edge="1" parent="1" source="pwaC9jHHKqCilpoOdg_W-23">
          <mxGeometry width="50" height="50" relative="1" as="geometry">
            <mxPoint x="39" y="980" as="sourcePoint" />
            <mxPoint x="31" y="70" as="targetPoint" />
          </mxGeometry>
        </mxCell>
        <mxCell id="pwaC9jHHKqCilpoOdg_W-34" value="" style="endArrow=none;dashed=1;html=1;rounded=0;exitX=0.5;exitY=0;exitDx=0;exitDy=0;exitPerimeter=0;" edge="1" parent="1" source="pwaC9jHHKqCilpoOdg_W-24" target="pwaC9jHHKqCilpoOdg_W-2">
          <mxGeometry width="50" height="50" relative="1" as="geometry">
            <mxPoint x="103" y="988" as="sourcePoint" />
            <mxPoint x="103" y="78" as="targetPoint" />
          </mxGeometry>
        </mxCell>
        <mxCell id="pwaC9jHHKqCilpoOdg_W-35" value="" style="endArrow=none;dashed=1;html=1;rounded=0;entryX=0.431;entryY=1;entryDx=0;entryDy=0;entryPerimeter=0;" edge="1" parent="1" source="pwaC9jHHKqCilpoOdg_W-76" target="pwaC9jHHKqCilpoOdg_W-5">
          <mxGeometry width="50" height="50" relative="1" as="geometry">
            <mxPoint x="200.17000000000002" y="990" as="sourcePoint" />
            <mxPoint x="200" y="90" as="targetPoint" />
          </mxGeometry>
        </mxCell>
        <mxCell id="pwaC9jHHKqCilpoOdg_W-36" value="" style="endArrow=none;dashed=1;html=1;rounded=0;entryX=0.582;entryY=0.973;entryDx=0;entryDy=0;entryPerimeter=0;exitX=0.581;exitY=-0.014;exitDx=0;exitDy=0;exitPerimeter=0;" edge="1" parent="1" source="pwaC9jHHKqCilpoOdg_W-26" target="pwaC9jHHKqCilpoOdg_W-6">
          <mxGeometry width="50" height="50" relative="1" as="geometry">
            <mxPoint x="421" y="1180" as="sourcePoint" />
            <mxPoint x="421" y="82" as="targetPoint" />
          </mxGeometry>
        </mxCell>
        <mxCell id="pwaC9jHHKqCilpoOdg_W-37" value="" style="endArrow=none;dashed=1;html=1;rounded=0;exitX=0.5;exitY=0;exitDx=0;exitDy=0;entryX=0.5;entryY=1;entryDx=0;entryDy=0;" edge="1" parent="1" source="pwaC9jHHKqCilpoOdg_W-27" target="pwaC9jHHKqCilpoOdg_W-7">
          <mxGeometry width="50" height="50" relative="1" as="geometry">
            <mxPoint x="631" y="1150" as="sourcePoint" />
            <mxPoint x="630.66" y="82" as="targetPoint" />
          </mxGeometry>
        </mxCell>
        <mxCell id="pwaC9jHHKqCilpoOdg_W-38" value="" style="endArrow=none;dashed=1;html=1;rounded=0;entryX=0.493;entryY=1;entryDx=0;entryDy=0;entryPerimeter=0;" edge="1" parent="1" source="pwaC9jHHKqCilpoOdg_W-47" target="pwaC9jHHKqCilpoOdg_W-8">
          <mxGeometry width="50" height="50" relative="1" as="geometry">
            <mxPoint x="770.6599999999999" y="992" as="sourcePoint" />
            <mxPoint x="770.6599999999999" y="82" as="targetPoint" />
          </mxGeometry>
        </mxCell>
        <mxCell id="pwaC9jHHKqCilpoOdg_W-39" value="" style="endArrow=none;dashed=1;html=1;rounded=0;exitX=0.5;exitY=0;exitDx=0;exitDy=0;entryX=0.494;entryY=1.011;entryDx=0;entryDy=0;entryPerimeter=0;" edge="1" parent="1" source="pwaC9jHHKqCilpoOdg_W-29" target="pwaC9jHHKqCilpoOdg_W-9">
          <mxGeometry width="50" height="50" relative="1" as="geometry">
            <mxPoint x="910.6599999999999" y="992" as="sourcePoint" />
            <mxPoint x="910.6599999999999" y="82" as="targetPoint" />
          </mxGeometry>
        </mxCell>
        <mxCell id="pwaC9jHHKqCilpoOdg_W-40" value="" style="endArrow=none;dashed=1;html=1;rounded=0;exitX=0.468;exitY=-0.001;exitDx=0;exitDy=0;exitPerimeter=0;entryX=0.464;entryY=1.007;entryDx=0;entryDy=0;entryPerimeter=0;" edge="1" parent="1" source="pwaC9jHHKqCilpoOdg_W-30" target="pwaC9jHHKqCilpoOdg_W-10">
          <mxGeometry width="50" height="50" relative="1" as="geometry">
            <mxPoint x="1061" y="1160" as="sourcePoint" />
            <mxPoint x="1061" y="82" as="targetPoint" />
          </mxGeometry>
        </mxCell>
        <mxCell id="pwaC9jHHKqCilpoOdg_W-41" value="" style="endArrow=none;startArrow=none;endFill=0;startFill=0;endSize=8;html=1;verticalAlign=bottom;labelBackgroundColor=none;strokeWidth=3;rounded=0;" edge="1" parent="1">
          <mxGeometry width="160" relative="1" as="geometry">
            <mxPoint x="2" y="140" as="sourcePoint" />
            <mxPoint x="1161" y="140" as="targetPoint" />
          </mxGeometry>
        </mxCell>
        <mxCell id="pwaC9jHHKqCilpoOdg_W-44" value="&lt;font color=&quot;#000000&quot;&gt;LOGIN PROCESS&lt;/font&gt;" style="fontStyle=1;whiteSpace=wrap;html=1;fillColor=#f5f5f5;strokeColor=#666666;gradientColor=#b3b3b3;" vertex="1" parent="1">
          <mxGeometry x="471" y="120" width="140" height="18" as="geometry" />
        </mxCell>
        <mxCell id="pwaC9jHHKqCilpoOdg_W-45" value="" style="endArrow=none;startArrow=none;endFill=0;startFill=0;endSize=8;html=1;verticalAlign=bottom;labelBackgroundColor=none;strokeWidth=3;rounded=0;" edge="1" parent="1">
          <mxGeometry width="160" relative="1" as="geometry">
            <mxPoint x="2" y="334" as="sourcePoint" />
            <mxPoint x="1161" y="334" as="targetPoint" />
          </mxGeometry>
        </mxCell>
        <mxCell id="pwaC9jHHKqCilpoOdg_W-46" value="&lt;font color=&quot;#000000&quot;&gt;Trip Booking&lt;/font&gt;" style="fontStyle=1;whiteSpace=wrap;html=1;fillColor=#f5f5f5;strokeColor=#666666;gradientColor=#b3b3b3;" vertex="1" parent="1">
          <mxGeometry x="471" y="314" width="140" height="18" as="geometry" />
        </mxCell>
        <mxCell id="pwaC9jHHKqCilpoOdg_W-48" value="" style="endArrow=none;dashed=1;html=1;rounded=0;exitX=0.5;exitY=-0.067;exitDx=0;exitDy=0;exitPerimeter=0;" edge="1" parent="1" source="pwaC9jHHKqCilpoOdg_W-28" target="pwaC9jHHKqCilpoOdg_W-47">
          <mxGeometry width="50" height="50" relative="1" as="geometry">
            <mxPoint x="771" y="1160" as="sourcePoint" />
            <mxPoint x="770.6599999999999" y="82" as="targetPoint" />
          </mxGeometry>
        </mxCell>
        <mxCell id="pwaC9jHHKqCilpoOdg_W-47" value="" style="html=1;points=[];perimeter=orthogonalPerimeter;fillColor=strokeColor;" vertex="1" parent="1">
          <mxGeometry x="770.5" y="380" width="5" height="120" as="geometry" />
        </mxCell>
        <mxCell id="pwaC9jHHKqCilpoOdg_W-49" value="" style="html=1;points=[];perimeter=orthogonalPerimeter;fillColor=strokeColor;" vertex="1" parent="1">
          <mxGeometry x="201" y="400" width="5" height="80" as="geometry" />
        </mxCell>
        <mxCell id="pwaC9jHHKqCilpoOdg_W-50" value="" style="endArrow=open;startArrow=none;endFill=0;startFill=0;endSize=8;html=1;verticalAlign=bottom;labelBackgroundColor=none;strokeWidth=1;rounded=0;entryX=0.4;entryY=0.076;entryDx=0;entryDy=0;entryPerimeter=0;" edge="1" parent="1">
          <mxGeometry width="160" relative="1" as="geometry">
            <mxPoint x="31" y="380" as="sourcePoint" />
            <mxPoint x="421" y="380" as="targetPoint" />
          </mxGeometry>
        </mxCell>
        <mxCell id="pwaC9jHHKqCilpoOdg_W-51" value="Request For Trip Booking" style="text;html=1;align=center;verticalAlign=middle;resizable=0;points=[];autosize=1;strokeColor=none;fillColor=none;" vertex="1" parent="1">
          <mxGeometry x="52" y="356" width="160" height="30" as="geometry" />
        </mxCell>
        <mxCell id="pwaC9jHHKqCilpoOdg_W-52" value="" style="endArrow=open;startArrow=none;endFill=0;startFill=0;endSize=8;html=1;verticalAlign=bottom;labelBackgroundColor=none;strokeWidth=1;rounded=0;entryX=-0.6;entryY=0.331;entryDx=0;entryDy=0;entryPerimeter=0;" edge="1" parent="1">
          <mxGeometry width="160" relative="1" as="geometry">
            <mxPoint x="421" y="391" as="sourcePoint" />
            <mxPoint x="767.5" y="390.7199999999999" as="targetPoint" />
          </mxGeometry>
        </mxCell>
        <mxCell id="pwaC9jHHKqCilpoOdg_W-53" value="Get Avilable Trip" style="text;html=1;align=center;verticalAlign=middle;resizable=0;points=[];autosize=1;strokeColor=none;fillColor=none;" vertex="1" parent="1">
          <mxGeometry x="466" y="366" width="110" height="30" as="geometry" />
        </mxCell>
        <mxCell id="pwaC9jHHKqCilpoOdg_W-54" value="" style="endArrow=block;startArrow=none;endFill=0;startFill=0;endSize=8;html=1;verticalAlign=bottom;dashed=1;labelBackgroundColor=none;rounded=0;exitX=-0.743;exitY=0.924;exitDx=0;exitDy=0;exitPerimeter=0;" edge="1" parent="1">
          <mxGeometry width="160" relative="1" as="geometry">
            <mxPoint x="767" y="421" as="sourcePoint" />
            <mxPoint x="211" y="420" as="targetPoint" />
          </mxGeometry>
        </mxCell>
        <mxCell id="pwaC9jHHKqCilpoOdg_W-55" value="Query for trip data" style="text;html=1;align=center;verticalAlign=middle;resizable=0;points=[];autosize=1;strokeColor=none;fillColor=none;" vertex="1" parent="1">
          <mxGeometry x="296" y="396" width="120" height="30" as="geometry" />
        </mxCell>
        <mxCell id="pwaC9jHHKqCilpoOdg_W-56" value="" style="endArrow=block;startArrow=none;endFill=0;startFill=0;endSize=8;html=1;verticalAlign=bottom;labelBackgroundColor=none;rounded=0;exitX=-0.743;exitY=0.924;exitDx=0;exitDy=0;exitPerimeter=0;" edge="1" parent="1">
          <mxGeometry width="160" relative="1" as="geometry">
            <mxPoint x="212" y="460" as="sourcePoint" />
            <mxPoint x="768" y="461" as="targetPoint" />
          </mxGeometry>
        </mxCell>
        <mxCell id="pwaC9jHHKqCilpoOdg_W-57" value="Return Trip Details" style="text;html=1;align=center;verticalAlign=middle;resizable=0;points=[];autosize=1;strokeColor=none;fillColor=none;" vertex="1" parent="1">
          <mxGeometry x="296" y="433" width="120" height="30" as="geometry" />
        </mxCell>
        <mxCell id="pwaC9jHHKqCilpoOdg_W-58" value="" style="endArrow=block;startArrow=none;endFill=0;startFill=0;endSize=8;html=1;verticalAlign=bottom;dashed=1;labelBackgroundColor=none;rounded=0;exitX=-0.743;exitY=0.924;exitDx=0;exitDy=0;exitPerimeter=0;" edge="1" parent="1">
          <mxGeometry width="160" relative="1" as="geometry">
            <mxPoint x="768" y="491" as="sourcePoint" />
            <mxPoint x="421" y="490" as="targetPoint" />
          </mxGeometry>
        </mxCell>
        <mxCell id="pwaC9jHHKqCilpoOdg_W-59" value="Provide Trip Details" style="text;html=1;align=center;verticalAlign=middle;resizable=0;points=[];autosize=1;strokeColor=none;fillColor=none;" vertex="1" parent="1">
          <mxGeometry x="461" y="466" width="130" height="30" as="geometry" />
        </mxCell>
        <mxCell id="pwaC9jHHKqCilpoOdg_W-60" value="" style="html=1;points=[];perimeter=orthogonalPerimeter;fillColor=strokeColor;" vertex="1" parent="1">
          <mxGeometry x="421" y="500" width="5" height="120" as="geometry" />
        </mxCell>
        <mxCell id="pwaC9jHHKqCilpoOdg_W-61" value="" style="html=1;points=[];perimeter=orthogonalPerimeter;fillColor=strokeColor;" vertex="1" parent="1">
          <mxGeometry x="34" y="498" width="5" height="120" as="geometry" />
        </mxCell>
        <mxCell id="pwaC9jHHKqCilpoOdg_W-62" value="" style="endArrow=block;startArrow=none;endFill=0;startFill=0;endSize=8;html=1;verticalAlign=bottom;dashed=1;labelBackgroundColor=none;rounded=0;exitX=-0.743;exitY=0.924;exitDx=0;exitDy=0;exitPerimeter=0;" edge="1" parent="1">
          <mxGeometry width="160" relative="1" as="geometry">
            <mxPoint x="416" y="511" as="sourcePoint" />
            <mxPoint x="51" y="510" as="targetPoint" />
          </mxGeometry>
        </mxCell>
        <mxCell id="pwaC9jHHKqCilpoOdg_W-63" value="" style="endArrow=block;startArrow=none;endFill=0;startFill=0;endSize=8;html=1;verticalAlign=bottom;labelBackgroundColor=none;rounded=0;exitX=1.4;exitY=0.283;exitDx=0;exitDy=0;exitPerimeter=0;" edge="1" parent="1" source="pwaC9jHHKqCilpoOdg_W-61">
          <mxGeometry width="160" relative="1" as="geometry">
            <mxPoint x="51" y="531" as="sourcePoint" />
            <mxPoint x="416" y="532" as="targetPoint" />
          </mxGeometry>
        </mxCell>
        <mxCell id="pwaC9jHHKqCilpoOdg_W-64" value="" style="endArrow=block;startArrow=none;endFill=0;startFill=0;endSize=8;html=1;verticalAlign=bottom;dashed=1;labelBackgroundColor=none;rounded=0;exitX=-0.743;exitY=0.924;exitDx=0;exitDy=0;exitPerimeter=0;" edge="1" parent="1">
          <mxGeometry width="160" relative="1" as="geometry">
            <mxPoint x="416" y="556" as="sourcePoint" />
            <mxPoint x="201" y="555" as="targetPoint" />
          </mxGeometry>
        </mxCell>
        <mxCell id="pwaC9jHHKqCilpoOdg_W-65" value="" style="endArrow=block;startArrow=none;endFill=0;startFill=0;endSize=8;html=1;verticalAlign=bottom;labelBackgroundColor=none;rounded=0;exitX=-0.743;exitY=0.924;exitDx=0;exitDy=0;exitPerimeter=0;" edge="1" parent="1">
          <mxGeometry width="160" relative="1" as="geometry">
            <mxPoint x="201" y="579" as="sourcePoint" />
            <mxPoint x="416" y="580" as="targetPoint" />
          </mxGeometry>
        </mxCell>
        <mxCell id="pwaC9jHHKqCilpoOdg_W-66" value="Display Trip Option" style="text;html=1;align=center;verticalAlign=middle;resizable=0;points=[];autosize=1;strokeColor=none;fillColor=none;" vertex="1" parent="1">
          <mxGeometry x="66" y="488" width="120" height="30" as="geometry" />
        </mxCell>
        <mxCell id="pwaC9jHHKqCilpoOdg_W-67" value="Select Trip" style="text;html=1;align=center;verticalAlign=middle;resizable=0;points=[];autosize=1;strokeColor=none;fillColor=none;" vertex="1" parent="1">
          <mxGeometry x="44" y="507" width="80" height="30" as="geometry" />
        </mxCell>
        <mxCell id="pwaC9jHHKqCilpoOdg_W-69" value="Update Trip Booking" style="text;html=1;align=center;verticalAlign=middle;resizable=0;points=[];autosize=1;strokeColor=none;fillColor=none;" vertex="1" parent="1">
          <mxGeometry x="227" y="531" width="130" height="30" as="geometry" />
        </mxCell>
        <mxCell id="pwaC9jHHKqCilpoOdg_W-70" value="Confirm Booking" style="text;html=1;align=center;verticalAlign=middle;resizable=0;points=[];autosize=1;strokeColor=none;fillColor=none;" vertex="1" parent="1">
          <mxGeometry x="246" y="556" width="110" height="30" as="geometry" />
        </mxCell>
        <mxCell id="pwaC9jHHKqCilpoOdg_W-71" value="" style="endArrow=block;startArrow=none;endFill=0;startFill=0;endSize=8;html=1;verticalAlign=bottom;dashed=1;labelBackgroundColor=none;rounded=0;exitX=-0.743;exitY=0.924;exitDx=0;exitDy=0;exitPerimeter=0;" edge="1" parent="1">
          <mxGeometry width="160" relative="1" as="geometry">
            <mxPoint x="416" y="611" as="sourcePoint" />
            <mxPoint x="51" y="610" as="targetPoint" />
          </mxGeometry>
        </mxCell>
        <mxCell id="pwaC9jHHKqCilpoOdg_W-72" value="Confirm Booking Status" style="text;html=1;align=center;verticalAlign=middle;resizable=0;points=[];autosize=1;strokeColor=none;fillColor=none;" vertex="1" parent="1">
          <mxGeometry x="51" y="586" width="150" height="30" as="geometry" />
        </mxCell>
        <mxCell id="pwaC9jHHKqCilpoOdg_W-73" value="" style="endArrow=none;startArrow=none;endFill=0;startFill=0;endSize=8;html=1;verticalAlign=bottom;labelBackgroundColor=none;strokeWidth=3;rounded=0;" edge="1" parent="1">
          <mxGeometry width="160" relative="1" as="geometry">
            <mxPoint x="2" y="654" as="sourcePoint" />
            <mxPoint x="1161" y="654" as="targetPoint" />
          </mxGeometry>
        </mxCell>
        <mxCell id="pwaC9jHHKqCilpoOdg_W-74" value="&lt;font color=&quot;#000000&quot;&gt;Job Assign&lt;/font&gt;" style="fontStyle=1;whiteSpace=wrap;html=1;fillColor=#f5f5f5;strokeColor=#666666;gradientColor=#b3b3b3;" vertex="1" parent="1">
          <mxGeometry x="471" y="634" width="140" height="18" as="geometry" />
        </mxCell>
        <mxCell id="pwaC9jHHKqCilpoOdg_W-75" value="" style="html=1;points=[];perimeter=orthogonalPerimeter;fillColor=strokeColor;" vertex="1" parent="1">
          <mxGeometry x="106.5" y="700" width="5" height="160" as="geometry" />
        </mxCell>
        <mxCell id="pwaC9jHHKqCilpoOdg_W-77" value="" style="endArrow=none;dashed=1;html=1;rounded=0;exitX=0.433;exitY=-0.017;exitDx=0;exitDy=0;exitPerimeter=0;" edge="1" parent="1" source="pwaC9jHHKqCilpoOdg_W-94" target="pwaC9jHHKqCilpoOdg_W-76">
          <mxGeometry width="50" height="50" relative="1" as="geometry">
            <mxPoint x="200.17000000000002" y="990" as="sourcePoint" />
            <mxPoint x="200.17000000000002" y="80" as="targetPoint" />
          </mxGeometry>
        </mxCell>
        <mxCell id="pwaC9jHHKqCilpoOdg_W-76" value="" style="html=1;points=[];perimeter=orthogonalPerimeter;fillColor=strokeColor;" vertex="1" parent="1">
          <mxGeometry x="201" y="720" width="5" height="80" as="geometry" />
        </mxCell>
        <mxCell id="pwaC9jHHKqCilpoOdg_W-78" value="" style="html=1;points=[];perimeter=orthogonalPerimeter;fillColor=strokeColor;" vertex="1" parent="1">
          <mxGeometry x="911" y="700" width="5" height="120" as="geometry" />
        </mxCell>
        <mxCell id="pwaC9jHHKqCilpoOdg_W-79" value="" style="endArrow=block;startArrow=none;endFill=0;startFill=0;endSize=8;html=1;verticalAlign=bottom;labelBackgroundColor=none;rounded=0;exitX=-0.743;exitY=0.924;exitDx=0;exitDy=0;exitPerimeter=0;" edge="1" parent="1">
          <mxGeometry width="160" relative="1" as="geometry">
            <mxPoint x="109.5" y="700" as="sourcePoint" />
            <mxPoint x="421" y="700" as="targetPoint" />
          </mxGeometry>
        </mxCell>
        <mxCell id="pwaC9jHHKqCilpoOdg_W-80" value="" style="endArrow=block;startArrow=none;endFill=0;startFill=0;endSize=8;html=1;verticalAlign=bottom;labelBackgroundColor=none;rounded=0;exitX=-0.743;exitY=0.924;exitDx=0;exitDy=0;exitPerimeter=0;entryX=0.167;entryY=0.081;entryDx=0;entryDy=0;entryPerimeter=0;" edge="1" parent="1" target="pwaC9jHHKqCilpoOdg_W-78">
          <mxGeometry width="160" relative="1" as="geometry">
            <mxPoint x="421" y="710" as="sourcePoint" />
            <mxPoint x="901" y="710" as="targetPoint" />
          </mxGeometry>
        </mxCell>
        <mxCell id="pwaC9jHHKqCilpoOdg_W-81" value="" style="endArrow=block;startArrow=none;endFill=0;startFill=0;endSize=8;html=1;verticalAlign=bottom;labelBackgroundColor=none;rounded=0;exitX=-0.743;exitY=0.924;exitDx=0;exitDy=0;exitPerimeter=0;entryX=2;entryY=0.25;entryDx=0;entryDy=0;entryPerimeter=0;dashed=1;" edge="1" parent="1" target="pwaC9jHHKqCilpoOdg_W-76">
          <mxGeometry width="160" relative="1" as="geometry">
            <mxPoint x="911" y="740" as="sourcePoint" />
            <mxPoint x="420" y="740" as="targetPoint" />
          </mxGeometry>
        </mxCell>
        <mxCell id="pwaC9jHHKqCilpoOdg_W-82" value="" style="endArrow=block;startArrow=none;endFill=0;startFill=0;endSize=8;html=1;verticalAlign=bottom;labelBackgroundColor=none;rounded=0;exitX=-0.743;exitY=0.924;exitDx=0;exitDy=0;exitPerimeter=0;entryX=2;entryY=0.25;entryDx=0;entryDy=0;entryPerimeter=0;" edge="1" parent="1">
          <mxGeometry width="160" relative="1" as="geometry">
            <mxPoint x="211" y="780" as="sourcePoint" />
            <mxPoint x="911" y="780" as="targetPoint" />
          </mxGeometry>
        </mxCell>
        <mxCell id="pwaC9jHHKqCilpoOdg_W-83" value="" style="endArrow=block;startArrow=none;endFill=0;startFill=0;endSize=8;html=1;verticalAlign=bottom;labelBackgroundColor=none;rounded=0;exitX=-0.743;exitY=0.924;exitDx=0;exitDy=0;exitPerimeter=0;entryX=0.167;entryY=0.081;entryDx=0;entryDy=0;entryPerimeter=0;dashed=1;" edge="1" parent="1">
          <mxGeometry width="160" relative="1" as="geometry">
            <mxPoint x="912" y="810" as="sourcePoint" />
            <mxPoint x="421" y="810" as="targetPoint" />
          </mxGeometry>
        </mxCell>
        <mxCell id="pwaC9jHHKqCilpoOdg_W-84" value="" style="endArrow=block;startArrow=none;endFill=0;startFill=0;endSize=8;html=1;verticalAlign=bottom;labelBackgroundColor=none;rounded=0;exitX=-0.743;exitY=0.924;exitDx=0;exitDy=0;exitPerimeter=0;dashed=1;" edge="1" parent="1">
          <mxGeometry width="160" relative="1" as="geometry">
            <mxPoint x="420" y="840" as="sourcePoint" />
            <mxPoint x="111" y="840" as="targetPoint" />
          </mxGeometry>
        </mxCell>
        <mxCell id="pwaC9jHHKqCilpoOdg_W-85" value="Assign Job To Colonist" style="text;html=1;align=center;verticalAlign=middle;resizable=0;points=[];autosize=1;strokeColor=none;fillColor=none;" vertex="1" parent="1">
          <mxGeometry x="109" y="677" width="140" height="30" as="geometry" />
        </mxCell>
        <mxCell id="pwaC9jHHKqCilpoOdg_W-86" value="Update Job Assignments" style="text;html=1;align=center;verticalAlign=middle;resizable=0;points=[];autosize=1;strokeColor=none;fillColor=none;" vertex="1" parent="1">
          <mxGeometry x="471" y="687" width="160" height="30" as="geometry" />
        </mxCell>
        <mxCell id="pwaC9jHHKqCilpoOdg_W-87" value="Query For get Job assigment recode" style="text;html=1;align=center;verticalAlign=middle;resizable=0;points=[];autosize=1;strokeColor=none;fillColor=none;" vertex="1" parent="1">
          <mxGeometry x="221" y="716" width="220" height="30" as="geometry" />
        </mxCell>
        <mxCell id="pwaC9jHHKqCilpoOdg_W-88" value="Confirm Update" style="text;html=1;align=center;verticalAlign=middle;resizable=0;points=[];autosize=1;strokeColor=none;fillColor=none;" vertex="1" parent="1">
          <mxGeometry x="267" y="756" width="110" height="30" as="geometry" />
        </mxCell>
        <mxCell id="pwaC9jHHKqCilpoOdg_W-89" value="Job Assignment Confrmation" style="text;html=1;align=center;verticalAlign=middle;resizable=0;points=[];autosize=1;strokeColor=none;fillColor=none;" vertex="1" parent="1">
          <mxGeometry x="426" y="783" width="180" height="30" as="geometry" />
        </mxCell>
        <mxCell id="pwaC9jHHKqCilpoOdg_W-90" value="Notify Assigment Status" style="text;html=1;align=center;verticalAlign=middle;resizable=0;points=[];autosize=1;strokeColor=none;fillColor=none;" vertex="1" parent="1">
          <mxGeometry x="144" y="813" width="150" height="30" as="geometry" />
        </mxCell>
        <mxCell id="pwaC9jHHKqCilpoOdg_W-91" value="" style="endArrow=none;startArrow=none;endFill=0;startFill=0;endSize=8;html=1;verticalAlign=bottom;labelBackgroundColor=none;strokeWidth=3;rounded=0;" edge="1" parent="1">
          <mxGeometry width="160" relative="1" as="geometry">
            <mxPoint x="2" y="900" as="sourcePoint" />
            <mxPoint x="1161" y="900" as="targetPoint" />
          </mxGeometry>
        </mxCell>
        <mxCell id="pwaC9jHHKqCilpoOdg_W-92" value="&lt;font color=&quot;#000000&quot;&gt;Astronomer Managment&lt;/font&gt;" style="fontStyle=1;whiteSpace=wrap;html=1;fillColor=#f5f5f5;strokeColor=#666666;gradientColor=#b3b3b3;" vertex="1" parent="1">
          <mxGeometry x="471" y="880" width="150" height="18" as="geometry" />
        </mxCell>
        <mxCell id="pwaC9jHHKqCilpoOdg_W-93" value="" style="html=1;points=[];perimeter=orthogonalPerimeter;fillColor=strokeColor;" vertex="1" parent="1">
          <mxGeometry x="106" y="940" width="5" height="160" as="geometry" />
        </mxCell>
        <mxCell id="pwaC9jHHKqCilpoOdg_W-95" value="" style="endArrow=none;dashed=1;html=1;rounded=0;exitX=0.433;exitY=-0.017;exitDx=0;exitDy=0;exitPerimeter=0;" edge="1" parent="1" source="pwaC9jHHKqCilpoOdg_W-25" target="pwaC9jHHKqCilpoOdg_W-94">
          <mxGeometry width="50" height="50" relative="1" as="geometry">
            <mxPoint x="200" y="1441" as="sourcePoint" />
            <mxPoint x="201" y="800" as="targetPoint" />
          </mxGeometry>
        </mxCell>
        <mxCell id="pwaC9jHHKqCilpoOdg_W-94" value="" style="html=1;points=[];perimeter=orthogonalPerimeter;fillColor=strokeColor;" vertex="1" parent="1">
          <mxGeometry x="203.5" y="980" width="5" height="80" as="geometry" />
        </mxCell>
        <mxCell id="pwaC9jHHKqCilpoOdg_W-96" value="" style="html=1;points=[];perimeter=orthogonalPerimeter;fillColor=strokeColor;" vertex="1" parent="1">
          <mxGeometry x="1063.5" y="941" width="5" height="120" as="geometry" />
        </mxCell>
        <mxCell id="pwaC9jHHKqCilpoOdg_W-97" value="" style="endArrow=block;startArrow=none;endFill=0;startFill=0;endSize=8;html=1;verticalAlign=bottom;labelBackgroundColor=none;rounded=0;exitX=-0.743;exitY=0.924;exitDx=0;exitDy=0;exitPerimeter=0;" edge="1" parent="1">
          <mxGeometry width="160" relative="1" as="geometry">
            <mxPoint x="109.5" y="940" as="sourcePoint" />
            <mxPoint x="421" y="940" as="targetPoint" />
          </mxGeometry>
        </mxCell>
        <mxCell id="pwaC9jHHKqCilpoOdg_W-98" value="" style="endArrow=block;startArrow=none;endFill=0;startFill=0;endSize=8;html=1;verticalAlign=bottom;labelBackgroundColor=none;rounded=0;exitX=-0.743;exitY=0.924;exitDx=0;exitDy=0;exitPerimeter=0;dashed=1;" edge="1" parent="1">
          <mxGeometry width="160" relative="1" as="geometry">
            <mxPoint x="420.5" y="1089" as="sourcePoint" />
            <mxPoint x="109" y="1089" as="targetPoint" />
          </mxGeometry>
        </mxCell>
        <mxCell id="pwaC9jHHKqCilpoOdg_W-99" value="Add New Astronomer" style="text;html=1;align=center;verticalAlign=middle;resizable=0;points=[];autosize=1;strokeColor=none;fillColor=none;" vertex="1" parent="1">
          <mxGeometry x="217" y="918" width="140" height="30" as="geometry" />
        </mxCell>
        <mxCell id="pwaC9jHHKqCilpoOdg_W-100" value="" style="endArrow=block;startArrow=none;endFill=0;startFill=0;endSize=8;html=1;verticalAlign=bottom;labelBackgroundColor=none;rounded=0;exitX=-0.743;exitY=0.924;exitDx=0;exitDy=0;exitPerimeter=0;" edge="1" parent="1">
          <mxGeometry width="160" relative="1" as="geometry">
            <mxPoint x="420" y="948" as="sourcePoint" />
            <mxPoint x="1061" y="950" as="targetPoint" />
          </mxGeometry>
        </mxCell>
        <mxCell id="pwaC9jHHKqCilpoOdg_W-101" value="Submit Astronomer Details" style="text;html=1;align=center;verticalAlign=middle;resizable=0;points=[];autosize=1;strokeColor=none;fillColor=none;" vertex="1" parent="1">
          <mxGeometry x="441" y="922" width="170" height="30" as="geometry" />
        </mxCell>
        <mxCell id="pwaC9jHHKqCilpoOdg_W-102" value="" style="endArrow=block;startArrow=none;endFill=0;startFill=0;endSize=8;html=1;verticalAlign=bottom;labelBackgroundColor=none;rounded=0;exitX=-0.743;exitY=0.924;exitDx=0;exitDy=0;exitPerimeter=0;dashed=1;" edge="1" parent="1">
          <mxGeometry width="160" relative="1" as="geometry">
            <mxPoint x="1063.5" y="988" as="sourcePoint" />
            <mxPoint x="211" y="986" as="targetPoint" />
          </mxGeometry>
        </mxCell>
        <mxCell id="pwaC9jHHKqCilpoOdg_W-103" value="Quary for insert Astronomer Details" style="text;html=1;align=center;verticalAlign=middle;resizable=0;points=[];autosize=1;strokeColor=none;fillColor=none;" vertex="1" parent="1">
          <mxGeometry x="421" y="960" width="210" height="30" as="geometry" />
        </mxCell>
        <mxCell id="pwaC9jHHKqCilpoOdg_W-104" value="" style="endArrow=block;startArrow=none;endFill=0;startFill=0;endSize=8;html=1;verticalAlign=bottom;labelBackgroundColor=none;rounded=0;exitX=-0.743;exitY=0.924;exitDx=0;exitDy=0;exitPerimeter=0;" edge="1" parent="1">
          <mxGeometry width="160" relative="1" as="geometry">
            <mxPoint x="208.5" y="1040" as="sourcePoint" />
            <mxPoint x="1061" y="1042" as="targetPoint" />
          </mxGeometry>
        </mxCell>
        <mxCell id="pwaC9jHHKqCilpoOdg_W-105" value="&lt;blockquote style=&quot;margin: 0 0 0 40px; border: none; padding: 0px;&quot;&gt;Confirm Update&lt;/blockquote&gt;" style="text;html=1;align=center;verticalAlign=middle;resizable=0;points=[];autosize=1;strokeColor=none;fillColor=none;" vertex="1" parent="1">
          <mxGeometry x="456" y="1015" width="150" height="30" as="geometry" />
        </mxCell>
        <mxCell id="pwaC9jHHKqCilpoOdg_W-106" value="&lt;blockquote style=&quot;margin: 0 0 0 40px; border: none; padding: 0px;&quot;&gt;Display Confirmation&lt;/blockquote&gt;" style="text;html=1;align=center;verticalAlign=middle;resizable=0;points=[];autosize=1;strokeColor=none;fillColor=none;" vertex="1" parent="1">
          <mxGeometry x="161" y="1061" width="170" height="30" as="geometry" />
        </mxCell>
        <mxCell id="pwaC9jHHKqCilpoOdg_W-108" value="" style="endArrow=none;startArrow=none;endFill=0;startFill=0;endSize=8;html=1;verticalAlign=bottom;labelBackgroundColor=none;strokeWidth=3;rounded=0;" edge="1" parent="1">
          <mxGeometry width="160" relative="1" as="geometry">
            <mxPoint x="4" y="1140" as="sourcePoint" />
            <mxPoint x="1163" y="1140" as="targetPoint" />
          </mxGeometry>
        </mxCell>
        <mxCell id="pwaC9jHHKqCilpoOdg_W-109" value="&lt;font color=&quot;#000000&quot;&gt;Ejet Managment&lt;/font&gt;" style="fontStyle=1;whiteSpace=wrap;html=1;fillColor=#f5f5f5;strokeColor=#666666;gradientColor=#b3b3b3;" vertex="1" parent="1">
          <mxGeometry x="473" y="1120" width="150" height="18" as="geometry" />
        </mxCell>
        <mxCell id="pwaC9jHHKqCilpoOdg_W-111" value="" style="html=1;points=[];perimeter=orthogonalPerimeter;fillColor=strokeColor;" vertex="1" parent="1">
          <mxGeometry x="107" y="1180" width="5" height="160" as="geometry" />
        </mxCell>
        <mxCell id="pwaC9jHHKqCilpoOdg_W-112" value="" style="html=1;points=[];perimeter=orthogonalPerimeter;fillColor=strokeColor;" vertex="1" parent="1">
          <mxGeometry x="201.5" y="1220" width="7.5" height="80" as="geometry" />
        </mxCell>
        <mxCell id="pwaC9jHHKqCilpoOdg_W-113" value="" style="html=1;points=[];perimeter=orthogonalPerimeter;fillColor=strokeColor;" vertex="1" parent="1">
          <mxGeometry x="631" y="1180" width="5" height="120" as="geometry" />
        </mxCell>
        <mxCell id="pwaC9jHHKqCilpoOdg_W-115" value="" style="endArrow=block;startArrow=none;endFill=0;startFill=0;endSize=8;html=1;verticalAlign=bottom;labelBackgroundColor=none;rounded=0;exitX=-0.743;exitY=0.924;exitDx=0;exitDy=0;exitPerimeter=0;" edge="1" parent="1">
          <mxGeometry width="160" relative="1" as="geometry">
            <mxPoint x="111" y="1180" as="sourcePoint" />
            <mxPoint x="422.5" y="1180" as="targetPoint" />
          </mxGeometry>
        </mxCell>
        <mxCell id="pwaC9jHHKqCilpoOdg_W-116" value="" style="endArrow=block;startArrow=none;endFill=0;startFill=0;endSize=8;html=1;verticalAlign=bottom;labelBackgroundColor=none;rounded=0;exitX=-0.743;exitY=0.924;exitDx=0;exitDy=0;exitPerimeter=0;dashed=1;" edge="1" parent="1">
          <mxGeometry width="160" relative="1" as="geometry">
            <mxPoint x="420.5" y="1329.44" as="sourcePoint" />
            <mxPoint x="109" y="1329.44" as="targetPoint" />
          </mxGeometry>
        </mxCell>
        <mxCell id="pwaC9jHHKqCilpoOdg_W-117" value="" style="endArrow=block;startArrow=none;endFill=0;startFill=0;endSize=8;html=1;verticalAlign=bottom;labelBackgroundColor=none;rounded=0;" edge="1" parent="1">
          <mxGeometry width="160" relative="1" as="geometry">
            <mxPoint x="421" y="1190" as="sourcePoint" />
            <mxPoint x="631" y="1190" as="targetPoint" />
          </mxGeometry>
        </mxCell>
        <mxCell id="pwaC9jHHKqCilpoOdg_W-118" value="" style="endArrow=block;startArrow=none;endFill=0;startFill=0;endSize=8;html=1;verticalAlign=bottom;labelBackgroundColor=none;rounded=0;exitX=-0.743;exitY=0.924;exitDx=0;exitDy=0;exitPerimeter=0;dashed=1;" edge="1" parent="1">
          <mxGeometry width="160" relative="1" as="geometry">
            <mxPoint x="631" y="1239" as="sourcePoint" />
            <mxPoint x="211" y="1239" as="targetPoint" />
          </mxGeometry>
        </mxCell>
        <mxCell id="pwaC9jHHKqCilpoOdg_W-119" value="" style="endArrow=block;startArrow=none;endFill=0;startFill=0;endSize=8;html=1;verticalAlign=bottom;labelBackgroundColor=none;rounded=0;exitX=-0.743;exitY=0.924;exitDx=0;exitDy=0;exitPerimeter=0;" edge="1" parent="1">
          <mxGeometry width="160" relative="1" as="geometry">
            <mxPoint x="212" y="1269" as="sourcePoint" />
            <mxPoint x="632" y="1269" as="targetPoint" />
          </mxGeometry>
        </mxCell>
        <mxCell id="pwaC9jHHKqCilpoOdg_W-120" value="&lt;blockquote style=&quot;margin: 0 0 0 40px; border: none; padding: 0px;&quot;&gt;Update Ejet Information&lt;/blockquote&gt;" style="text;html=1;align=center;verticalAlign=middle;resizable=0;points=[];autosize=1;strokeColor=none;fillColor=none;" vertex="1" parent="1">
          <mxGeometry x="102" y="1154" width="190" height="30" as="geometry" />
        </mxCell>
        <mxCell id="pwaC9jHHKqCilpoOdg_W-121" value="&lt;blockquote style=&quot;margin: 0 0 0 40px; border: none; padding: 0px;&quot;&gt;Request Ejet&amp;nbsp;&lt;span style=&quot;background-color: initial;&quot;&gt;Update&lt;/span&gt;&lt;span style=&quot;background-color: initial;&quot;&gt;&amp;nbsp;&lt;/span&gt;&lt;/blockquote&gt;" style="text;html=1;align=center;verticalAlign=middle;resizable=0;points=[];autosize=1;strokeColor=none;fillColor=none;" vertex="1" parent="1">
          <mxGeometry x="406" y="1165" width="180" height="30" as="geometry" />
        </mxCell>
        <mxCell id="pwaC9jHHKqCilpoOdg_W-122" value="&lt;blockquote style=&quot;margin: 0 0 0 40px; border: none; padding: 0px;&quot;&gt;Query for Update Ejet Recode&lt;/blockquote&gt;" style="text;html=1;align=center;verticalAlign=middle;resizable=0;points=[];autosize=1;strokeColor=none;fillColor=none;" vertex="1" parent="1">
          <mxGeometry x="183.5" y="1216" width="220" height="30" as="geometry" />
        </mxCell>
        <mxCell id="pwaC9jHHKqCilpoOdg_W-123" value="&lt;blockquote style=&quot;margin: 0 0 0 40px; border: none; padding: 0px;&quot;&gt;Confirm&amp;nbsp;&lt;span style=&quot;background-color: initial;&quot;&gt;Recode&amp;nbsp;&lt;/span&gt;&lt;span style=&quot;background-color: initial;&quot;&gt;&amp;nbsp;Update&lt;/span&gt;&lt;/blockquote&gt;" style="text;html=1;align=center;verticalAlign=middle;resizable=0;points=[];autosize=1;strokeColor=none;fillColor=none;" vertex="1" parent="1">
          <mxGeometry x="192" y="1245" width="200" height="30" as="geometry" />
        </mxCell>
        <mxCell id="pwaC9jHHKqCilpoOdg_W-124" value="" style="endArrow=block;startArrow=none;endFill=0;startFill=0;endSize=8;html=1;verticalAlign=bottom;labelBackgroundColor=none;rounded=0;dashed=1;" edge="1" parent="1">
          <mxGeometry width="160" relative="1" as="geometry">
            <mxPoint x="631" y="1291.53" as="sourcePoint" />
            <mxPoint x="421" y="1291.53" as="targetPoint" />
          </mxGeometry>
        </mxCell>
        <mxCell id="pwaC9jHHKqCilpoOdg_W-125" value="&lt;blockquote style=&quot;margin: 0 0 0 40px; border: none; padding: 0px;&quot;&gt;Return Success Massege&lt;/blockquote&gt;" style="text;html=1;align=center;verticalAlign=middle;resizable=0;points=[];autosize=1;strokeColor=none;fillColor=none;" vertex="1" parent="1">
          <mxGeometry x="386" y="1267" width="200" height="30" as="geometry" />
        </mxCell>
        <mxCell id="pwaC9jHHKqCilpoOdg_W-126" value="&lt;blockquote style=&quot;margin: 0 0 0 40px; border: none; padding: 0px;&quot;&gt;Display Update Confirmation&lt;/blockquote&gt;" style="text;html=1;align=center;verticalAlign=middle;resizable=0;points=[];autosize=1;strokeColor=none;fillColor=none;" vertex="1" parent="1">
          <mxGeometry x="161" y="1307" width="220" height="30" as="geometry" />
        </mxCell>
      </root>
    </mxGraphModel>
  </diagram>
</mxfile>
